<svg width="512" height="512" viewBox="0 0 512 512" fill="none" xmlns="http://www.w3.org/2000/svg">
  <!-- Background gradient -->
  <defs>
    <linearGradient id="bg-gradient" x1="0%" y1="0%" x2="100%" y2="100%">
      <stop offset="0%" style="stop-color:#00D9FF;stop-opacity:1" />
      <stop offset="100%" style="stop-color:#00A3CC;stop-opacity:1" />
    </linearGradient>
    <linearGradient id="bird-gradient" x1="0%" y1="0%" x2="100%" y2="100%">
      <stop offset="0%" style="stop-color:#FF6B35;stop-opacity:1" />
      <stop offset="100%" style="stop-color:#FF4500;stop-opacity:1" />
    </linearGradient>
    <linearGradient id="flame-gradient" x1="0%" y1="100%" x2="0%" y2="0%">
      <stop offset="0%" style="stop-color:#FF6B35;stop-opacity:1" />
      <stop offset="50%" style="stop-color:#FFA500;stop-opacity:1" />
      <stop offset="100%" style="stop-color:#FFD700;stop-opacity:1" />
    </linearGradient>
  </defs>
  
  <!-- Background circle -->
  <circle cx="256" cy="256" r="256" fill="url(#bg-gradient)"/>
  
  <!-- Bird body (simplified flappy bird style) -->
  <g transform="translate(256, 256)">
    <!-- Body -->
    <circle cx="0" cy="0" r="80" fill="url(#bird-gradient)"/>
    
    <!-- Wing -->
    <ellipse cx="-30" cy="0" rx="50" ry="30" fill="#FF8C61" transform="rotate(-20 -30 0)"/>
    
    <!-- Eye white -->
    <circle cx="25" cy="-15" r="18" fill="white"/>
    <!-- Eye pupil -->
    <circle cx="30" cy="-15" r="10" fill="#1a1a2e"/>
    
    <!-- Beak -->
    <path d="M 50 0 L 85 0 L 50 15 Z" fill="#FFA500"/>
    
    <!-- Fitness band (headband) -->
    <ellipse cx="0" cy="-50" rx="85" ry="15" fill="#00D9FF" opacity="0.8"/>
    
    <!-- Flame icon (calories burning) -->
    <g transform="translate(-70, -100)">
      <path d="M 20 50 Q 10 30 20 10 Q 25 20 30 10 Q 35 30 25 50 Z" fill="url(#flame-gradient)" opacity="0.9"/>
    </g>
    
    <!-- Activity indicator -->
    <g transform="translate(70, -90)">
      <!-- Heart rate line -->
      <path d="M 0 0 L 5 -10 L 10 10 L 15 -5 L 20 0" stroke="#FFD700" stroke-width="3" fill="none"/>
    </g>
  </g>
</svg>

